<svg id="ewfSlT6g7Qo1" xmlns="http://www.w3.org/2000/svg" xmlns:xlink="http://www.w3.org/1999/xlink" viewBox="0 0 200 200" shape-rendering="geometricPrecision" text-rendering="geometricPrecision"><ellipse rx="17.962712" ry="18.042137" transform="matrix(3.47943 0 0 3.464113 100 100)" fill="#85c7dc" fill-opacity="0.8" stroke-width="0"/><ellipse rx="20.034076" ry="19.819628" transform="matrix(4.492346 0 0 4.540953 100 100.000001)" fill="#606060" fill-opacity="0" stroke="#fff"/><ellipse rx="24.205104" ry="15" transform="matrix(.309852 0 0 0.5 100 189.999999)" fill="#f6ffbc" fill-opacity="0.9" stroke-width="0"/><ellipse rx="24.205104" ry="15" transform="matrix(.309852 0 0 0.5 100 10.000001)" fill="#f6ffbc" fill-opacity="0.9" stroke-width="0"/><ellipse rx="24.205104" ry="15" transform="matrix(.309852 0 0 0.5 70.244893 14.999999)" fill="#f6ffbc" fill-opacity="0.9" stroke-width="0"/><ellipse rx="24.205104" ry="15" transform="matrix(.309852 0 0 0.5 132.542769 14.999999)" fill="#f6ffbc" fill-opacity="0.9" stroke-width="0"/><ellipse rx="24.205104" ry="15" transform="matrix(.309852 0 0 0.5 41.742596 29.999999)" fill="#f6ffbc" fill-opacity="0.9" stroke-width="0"/><ellipse rx="24.205104" ry="15" transform="matrix(.309852 0 0 0.5 156.973308 29.999999)" fill="#f6ffbc" fill-opacity="0.9" stroke-width="0"/><ellipse rx="24.205104" ry="15" transform="matrix(.309852 0 0 0.5 21.571755 53.974973)" fill="#f6ffbc" fill-opacity="0.9" stroke-width="0"/><ellipse rx="24.205104" ry="15" transform="matrix(.309852 0 0 0.5 176.705682 53.974973)" fill="#f6ffbc" fill-opacity="0.9" stroke-width="0"/><ellipse rx="24.205104" ry="15" transform="matrix(.309852 0 0 0.5 9.999999 82.070092)" fill="#f6ffbc" fill-opacity="0.9" stroke-width="0"/><ellipse rx="24.205104" ry="15" transform="matrix(.309852 0 0 0.5 190.000001 82.070092)" fill="#f6ffbc" fill-opacity="0.9" stroke-width="0"/><ellipse rx="24.205104" ry="15" transform="matrix(.309852 0 0 0.5 70.244893 185.000002)" fill="#f6ffbc" fill-opacity="0.9" stroke-width="0"/><ellipse rx="24.205104" ry="15" transform="matrix(.309852 0 0 0.500001 132.542769 184.999987)" fill="#f6ffbc" fill-opacity="0.9" stroke-width="0"/><ellipse rx="24.205104" ry="15" transform="matrix(.309852 0 0 0.5 41.742596 165.928245)" fill="#f6ffbc" fill-opacity="0.9" stroke-width="0"/><ellipse rx="24.205104" ry="15" transform="matrix(.309852 0 0 0.5 161.705682 165.928245)" fill="#f6ffbc" fill-opacity="0.9" stroke-width="0"/><ellipse rx="24.205104" ry="15" transform="matrix(.309852 0 0 0.5 21.571755 143.84397)" fill="#f6ffbc" fill-opacity="0.9" stroke-width="0"/><ellipse rx="24.205104" ry="15" transform="matrix(.309852 0 0 0.5 176.705682 143.84397)" fill="#f6ffbc" fill-opacity="0.9" stroke-width="0"/><ellipse rx="24.205104" ry="15" transform="matrix(.309852 0 0 0.5 9.999999 114.763669)" fill="#f6ffbc" fill-opacity="0.9" stroke-width="0"/><ellipse rx="24.205104" ry="15" transform="matrix(.309852 0 0 0.5 190.000001 114.763669)" fill="#f6ffbc" fill-opacity="0.9" stroke-width="0"/></svg>
