<svg id="eI6b7xOGlTR1" xmlns="http://www.w3.org/2000/svg" xmlns:xlink="http://www.w3.org/1999/xlink" viewBox="0 0 200 200" shape-rendering="geometricPrecision" text-rendering="geometricPrecision"><ellipse rx="17.962712" ry="18.042137" transform="matrix(3.47943 0 0 3.464113 100 100)" fill="#{{COLOR}}" fill-opacity="0.8" stroke-width="0"/><ellipse rx="20.034076" ry="19.819628" transform="matrix(4.492346 0 0 4.540953 100 100)" fill="#606060" fill-opacity="0" stroke="#fff"/><ellipse rx="24.205104" ry="15" transform="matrix(.309852 0 0 0.5 100 10.000001)" fill="#f6ffbc" fill-opacity="0.9" stroke-width="0"/><ellipse rx="24.205104" ry="15" transform="matrix(.309852 0 0 0.5 100 189.999999)" fill="#f6ffbc" fill-opacity="0.9" stroke-width="0"/><ellipse rx="24.205104" ry="15" transform="matrix(.309852 0 0 0.5 37.500001 163.419692)" fill="#f6ffbc" fill-opacity="0.9" stroke-width="0"/><ellipse rx="24.205104" ry="15" transform="matrix(.309852 0 0 0.5 164.706715 162.500002)" fill="#f6ffbc" fill-opacity="0.9" stroke-width="0"/><ellipse rx="24.205104" ry="15" transform="matrix(.309852 0 0 0.5 9.999999 100)" fill="#f6ffbc" fill-opacity="0.9" stroke-width="0"/><ellipse rx="24.205104" ry="15" transform="matrix(.309852 0 0 0.5 190.000001 100)" fill="#f6ffbc" fill-opacity="0.9" stroke="#fff" stroke-opacity="0"/><ellipse rx="24.205104" ry="15" transform="matrix(.309852 0 0 0.5 37.500001 37.499999)" fill="#f6ffbc" fill-opacity="0.9" stroke-width="0"/><ellipse rx="24.205104" ry="15" transform="matrix(.309852 0 0 0.5 164.706715 37.499999)" fill="#f6ffbc" fill-opacity="0.9" stroke-width="0"/></svg>
